# xmcd
#
# Track frame offsets:
#	150
#	21369
#	39213
#	64863
#	83638
#	97638
#	115646
#	132497
#	160623
#	174443
#	185894
#	205773
#	227691
#	244050
#	267237
#	282248
#	294233
#	312064
#
# Disc length: 4335 seconds
#
# Revision: 2
# Processed by: cddbd v1.5.2PL0 Copyright (c) Steve Scherf et al.
# Submitted via: audiograbber 1.83.01
#
DISCID=e910ed12
DTITLE=The Pink Piano Allstars - Fool's Paradise
DYEAR=1900
DGENRE=
TTITLE0=Your Home Is In My Heart
TTITLE1=Mr. Blues Is Coming To Town
TTITLE2=Fool's Paradise
TTITLE3=Don't Touch Me Baby
TTITLE4=I'm Ready
TTITLE5=Serves Me Right To Suffer
TTITLE6=Mr. Right Now
TTITLE7=Feel Like A Millioaire
TTITLE8=Don't Get Around Much Anymore
TTITLE9=Those Lonely Lonely Nights
TTITLE10=Wednesday 6.pm
TTITLE11=Hard Times
TTITLE12=Don't Burn Down The Bridge
TTITLE13=I Had A Dream
TTITLE14=Junco Partner
TTITLE15=Watchdog
TTITLE16=The Moon Is Rising
TTITLE17=I Believe I'm Gonna Drink Some More
EXTD=Tom Vieth - voc, guitar\nChristoph Reiter - guitar\nOliver Geselbracht - b
EXTD=ass\nPeter Samland - drums\nAcim Lahrmann - piano\nTommy Schneller - sax\n
EXTD=Gerd Gorke voc, harp\nThomas Feldmann - sax, harp\nChristian Rannenberg - 
EXTD=voc, piano\nWolfgang Roggenkamp - organ, drums\nMartin Schmachtenberg - dr
EXTD=ums, voc\nRainer Achterholt - guitar\nKai Strauss - voc, guitar\nHorst "Cr
EXTD=ow" Bergmeyer - voc, piano\nMischa Altenhöner - drums\nErnst-Udo Hartmann 
EXTD=drums\nMirko Bartolcic - bass\nTodor "Toscho" Todorovic - voc, guitar\nB
EXTD=urkhard Ellger - voc, piano\n
EXTT0=(Tom Vieth)
EXTT1=(Harris)
EXTT2=(Johnny Fuller)
EXTT3=(Watson, Taub, Josea)
EXTT4=(W. Dixon)
EXTT5=(Percy Mayfield)
EXTT6=(G. Boylston, R. Greenlee, Dr. Hector)
EXTT7=(Washington)
EXTT8=(D. Ellington)
EXTT9=(King, Davis)
EXTT10=(R. Achterholt)
EXTT11=(Ray Charles)
EXTT12=(A. Jones, C. Wells)
EXTT13=(Big Bill Broonzy)
EXTT14=(Bob Shad, Brad)
EXTT15=(L. Barker jr.)
EXTT16=(R. L. McCullum)
EXTT17=(C. Rannenberg)
PLAYORDER=
